<svg xmlns="http://www.w3.org/2000/svg" viewBox="0 0 32 32">
  <!-- Background -->
  <circle cx="16" cy="16" r="16" fill="#4a5568"/>
  
  <!-- Speech bubble -->
  <path d="M24 12c0-3.3-3.6-6-8-6s-8 2.7-8 6c0 2.1 1.4 3.9 3.6 4.9-.1.9-.6 2.1-1.6 3.1 2-.2 3.4-.8 4.3-1.3.5.1 1.1.2 1.7.2 4.4.1 8-2.6 8-5.9z" fill="#fff"/>
  
  <!-- Profile silhouette -->
  <path d="M15.5 14c-.8 0-1.5-.3-2.1-.9-.6-.6-.9-1.3-.9-2.1 0-.8.3-1.5.9-2.1.6-.6 1.3-.9 2.1-.9.8 0 1.5.3 2.1.9.6.6.9 1.3.9 2.1 0 .8-.3 1.5-.9 2.1-.6.6-1.3.9-2.1.9z" fill="#4a5568"/>
  
  <!-- Quote marks -->
  <path d="M14 11l1-2h-2l-1 2v2h2v-2zm4 0l1-2h-2l-1 2v2h2v-2z" fill="#4a5568"/>
</svg>